<svg version="1.1" id="Layer_1" xmlns="http://www.w3.org/2000/svg" xmlns:xlink="http://www.w3.org/1999/xlink" x="0px" y="0px"
	 width="100%" viewBox="0 0 500 500" enable-background="new 0 0 500 500" xml:space="preserve">
<path fill="#010101" opacity="1.000000" stroke="none" 
	d="
M234.000000,501.000000 
	C156.000015,501.000000 78.500038,501.000000 1.000041,501.000000 
	C1.000028,334.333405 1.000028,167.666779 1.000014,1.000131 
	C167.666565,1.000087 334.333130,1.000087 500.999756,1.000044 
	C500.999847,167.666519 500.999847,334.333038 500.999939,500.999786 
	C412.166656,501.000000 323.333344,501.000000 234.000000,501.000000 
M206.893234,303.740265 
	C206.813477,303.690399 206.733704,303.640533 206.653946,303.590668 
	C206.772308,303.724823 206.890686,303.858978 207.114151,304.257416 
	C207.193314,304.306305 207.272491,304.355225 207.351654,304.404114 
	C207.232147,304.272430 207.112640,304.140747 206.893234,303.740265 
M332.806671,364.962006 
	C334.056030,363.656830 335.305389,362.351654 336.978271,361.084991 
	C337.142151,360.744965 337.306061,360.404938 338.085358,361.038025 
	C338.732666,360.721832 339.380005,360.405670 340.666748,359.898529 
	C341.907745,358.605347 343.148743,357.312195 345.051178,355.920349 
	C350.576324,351.572174 354.093506,341.737000 351.166992,337.953918 
	C348.894012,340.902069 349.964325,348.041992 343.010864,344.237183 
	C344.371704,339.160706 345.732574,334.084229 347.836273,329.104492 
	C349.395325,331.160889 350.954346,333.217316 353.343842,336.369110 
	C353.528625,332.359711 353.674438,329.196106 353.776062,326.990997 
	C350.813599,326.990997 348.964996,326.990997 346.938354,326.364380 
	C346.900848,325.932220 346.863342,325.500092 347.370789,324.719269 
	C347.089050,322.062836 346.807312,319.406433 346.525574,316.750000 
	C346.039856,316.752930 345.554169,316.755859 345.068451,316.758789 
	C345.068451,319.560120 345.068451,322.361450 345.108154,325.944122 
	C343.874939,336.176849 337.657990,342.332062 328.508606,345.931671 
	C319.755219,349.375488 310.585663,349.680847 301.418274,348.551636 
	C269.308655,344.596497 240.945923,331.056732 214.208679,313.480072 
	C214.137085,312.651398 214.065506,311.822723 214.735413,310.968597 
	C215.538712,310.526001 216.342026,310.083435 217.779419,309.801056 
	C218.853668,310.528625 219.927917,311.256195 221.012009,312.706970 
	C221.374771,314.956268 222.229782,315.786835 225.000336,313.795441 
	C231.093262,313.795441 237.186172,313.795441 243.808380,313.795441 
	C243.808380,298.490479 243.808380,283.793182 243.808380,267.797241 
	C249.929855,274.246643 255.162994,279.722443 260.353638,285.238220 
	C266.933655,292.230469 266.783386,292.109131 273.490448,285.402435 
	C278.922089,279.971100 284.730652,274.916656 290.398804,269.670258 
	C290.398804,283.932281 290.398804,298.660217 290.398804,313.506989 
	C299.622833,313.506989 308.328979,313.506989 317.132446,313.506989 
	C317.132446,278.921600 317.132446,244.675598 317.132446,210.578506 
	C310.975952,209.017075 306.509857,210.484604 302.545532,215.482742 
	C297.178497,222.249283 290.976807,228.354553 285.121399,234.732712 
	C279.080811,241.312653 273.026123,247.879654 266.666931,254.789871 
	C254.431290,240.972107 242.639069,227.655090 230.966812,213.711472 
	C231.080551,212.951889 231.194275,212.192307 231.367065,211.038422 
	C230.214508,211.499741 229.470947,211.797379 228.097305,211.694122 
	C224.428604,211.142365 220.759888,210.590622 216.538849,209.986176 
	C216.444382,210.675552 216.349930,211.364944 216.525650,212.946075 
	C216.539093,234.173004 216.587906,255.399994 216.550552,276.626831 
	C216.532776,286.730408 216.350906,296.833710 215.605270,306.974457 
	C211.712753,306.985870 214.200500,309.527832 213.371521,310.935120 
	C211.881058,311.347748 210.739960,305.299957 208.373734,310.596924 
	C207.244431,309.742859 206.115143,308.888763 204.905045,307.328918 
	C203.914413,306.889526 202.923767,306.450104 201.316620,305.891113 
	C200.186111,304.983978 199.055603,304.076813 198.084091,302.397736 
	C198.803848,301.029205 199.523605,299.660675 200.907547,298.553131 
	C202.582214,299.307251 204.256882,300.061371 206.299408,301.351166 
	C206.863754,300.228302 207.428116,299.105438 208.108276,297.253601 
	C217.595367,276.515717 209.446564,259.661560 187.382126,254.418732 
	C186.091782,254.112137 184.764801,253.957230 183.452606,253.745651 
	C176.240875,252.582916 168.993668,251.601349 161.830444,250.192535 
	C158.059937,249.450974 155.075241,247.410492 154.788620,242.934402 
	C154.483810,238.173950 157.206238,235.515717 161.100021,233.774124 
	C170.854813,229.411072 179.160095,232.334320 184.111404,241.668884 
	C192.102310,241.668884 200.032150,241.668884 208.191116,241.668884 
	C208.263016,240.623505 208.402084,239.823532 208.359970,239.033249 
	C207.520493,223.277924 193.561234,210.097931 177.667084,210.051041 
	C171.842117,210.033859 165.981613,209.667603 160.203568,210.191422 
	C155.847076,210.586365 150.971924,211.166138 147.444092,213.415024 
	C142.120026,216.809006 137.769089,221.729507 132.518280,225.698868 
	C132.151291,225.449158 131.784302,225.199448 131.417328,224.949738 
	C131.463623,226.981232 131.509918,229.012711 131.892288,231.485947 
	C131.923737,231.668274 131.955170,231.850616 131.960602,232.857529 
	C132.885178,233.766312 133.809753,234.675079 135.179810,236.036606 
	C136.320328,237.624557 137.460831,239.212524 137.724899,240.899689 
	C136.034195,240.282013 134.339142,239.675919 132.654404,239.042374 
	C131.623474,238.654709 130.608429,238.224884 129.292160,237.402878 
	C128.679123,236.539871 128.066071,235.676865 127.737175,233.897552 
	C128.467209,230.548615 127.734634,228.440277 123.160957,228.731873 
	C115.860039,217.115036 109.716209,205.048187 107.447609,191.281830 
	C104.474136,173.238068 113.414139,159.920166 131.334198,156.698837 
	C146.375275,153.995041 161.038300,156.433945 175.432678,160.966690 
	C182.206375,163.099716 188.948929,165.331680 195.705582,167.518799 
	C195.954727,167.054077 196.203857,166.589355 196.452988,166.124634 
	C195.009949,165.190826 193.668060,164.013306 192.106461,163.365082 
	C185.079117,160.447952 178.107056,157.328232 170.900360,154.925476 
	C148.442261,147.437744 125.752533,141.825943 101.685066,148.562164 
	C101.119896,148.999191 100.554726,149.436218 99.661911,150.145935 
	C99.661911,150.145935 99.236732,150.115448 98.478539,149.752289 
	C97.476166,148.507370 96.473785,147.262436 95.892563,145.608337 
	C96.945915,145.077377 97.999268,144.546417 99.482285,143.737991 
	C103.529686,143.030670 107.577080,142.323349 111.624481,141.616028 
	C111.577682,141.047791 111.530876,140.479553 111.484077,139.911316 
	C108.279663,139.911316 105.026894,139.576660 101.888016,140.030212 
	C99.831917,140.327332 97.940636,141.765121 95.308350,143.017944 
	C75.148254,151.054337 68.116516,168.475983 70.923714,186.725983 
	C72.519608,197.101105 75.599312,207.535919 79.795204,217.166397 
	C90.241714,241.143417 107.027374,260.757355 125.117416,279.321503 
	C126.563972,280.805969 127.690483,283.125092 127.926743,285.176056 
	C128.976059,294.284851 132.933075,301.605103 140.264969,307.103271 
	C147.561142,312.574677 155.954666,314.871613 164.878006,315.778870 
	C166.595474,315.953491 168.457840,316.482635 169.885422,317.412872 
	C175.318024,320.952820 180.496307,324.885834 185.955215,328.382202 
	C216.584518,347.999725 248.822205,363.794891 285.225403,369.449036 
	C299.318085,371.637878 313.357819,372.131866 327.797913,367.174896 
	C328.368835,366.802856 328.939758,366.430817 329.504761,366.003662 
	C329.504761,366.003662 329.515869,366.061829 330.057770,366.196198 
	C330.687134,365.837585 331.316498,365.478973 332.806671,364.962006 
M214.098465,174.741211 
	C214.362701,175.389603 214.626938,176.037979 215.254181,177.120285 
	C216.229172,177.274796 217.204147,177.429306 218.179138,177.583832 
	C218.239655,177.214127 218.300186,176.844421 218.360703,176.474731 
	C217.240723,175.982147 216.120728,175.489578 214.098465,174.741211 
M208.307068,173.409500 
	C208.675690,173.059860 209.044312,172.710220 209.412949,172.360596 
	C209.112747,172.081833 208.812561,171.803070 207.983047,171.031555 
	C204.522980,169.363632 201.062927,167.695694 197.602875,166.027756 
	C197.261063,166.728989 196.919266,167.430222 196.577469,168.131454 
	C200.268051,169.753937 203.958633,171.376434 208.307068,173.409500 
M119.901260,419.745056 
	C119.626091,425.509186 119.350922,431.273285 118.886467,437.849609 
	C118.886467,443.125153 118.886467,448.400726 118.886467,453.724792 
	C122.094559,453.724792 125.191193,453.724792 129.154816,453.724792 
	C129.154816,440.823151 129.154816,428.208466 129.154816,415.288177 
	C127.695778,415.288177 125.905624,415.288177 123.378769,415.027222 
	C122.294327,415.707581 121.209877,416.387939 120.041901,417.688782 
	C120.075447,418.104065 120.108994,418.519348 119.901260,419.745056 
M340.996094,428.584961 
	C341.287048,429.068604 341.578003,429.552246 341.977631,430.776062 
	C341.785828,432.890686 341.530029,435.001801 341.414673,437.120575 
	C341.113403,442.653931 340.873596,448.190643 340.614319,453.620453 
	C344.523834,453.620453 347.580841,453.620453 350.460144,453.620453 
	C351.039032,441.514648 351.526367,429.805084 352.201355,418.106354 
	C352.411987,414.455994 350.274567,414.992645 347.221069,415.115997 
	C343.255249,414.501434 341.475769,416.062897 341.987640,420.171326 
	C342.185333,421.758087 342.013641,423.390839 341.773590,425.589050 
	C341.566498,426.381073 341.359375,427.173065 340.996094,428.584961 
M397.455444,305.401306 
	C397.455444,308.142548 397.455444,310.883789 397.455444,313.538208 
	C406.890839,313.538208 415.476044,313.538208 424.265442,313.538208 
	C424.265442,279.007782 424.265442,244.779114 424.265442,210.568573 
	C418.655762,209.246185 414.299042,209.989975 410.512115,214.797791 
	C405.687256,220.923370 400.056030,226.414383 394.764526,232.171707 
	C387.924225,239.614227 381.076111,247.049530 374.048248,254.686905 
	C372.877136,253.577957 372.001740,252.854889 371.249451,252.020782 
	C359.991547,239.538483 348.501038,227.252609 337.632660,214.439255 
	C333.556030,209.633087 329.251678,209.591446 324.118958,210.511642 
	C324.118958,245.000229 324.118958,279.213104 324.118958,313.454590 
	C333.167694,313.454590 341.875366,313.454590 351.138550,313.454590 
	C351.138550,298.397339 351.138550,283.733643 351.138550,268.149658 
	C357.816925,275.188782 363.936371,281.295135 369.631378,287.774567 
	C372.875946,291.466064 375.157562,291.473053 378.416840,287.815369 
	C384.217834,281.305328 390.409271,275.143219 397.455475,267.770386 
	C397.455475,280.955536 397.455475,292.690491 397.455444,305.401306 
M385.241608,426.271332 
	C382.536102,415.695038 382.044464,415.298004 372.391724,416.498962 
	C371.833771,428.869324 371.271057,441.345856 370.693085,454.160797 
	C374.510895,453.934692 377.440582,453.761200 380.661224,453.570465 
	C380.762878,451.545166 380.873657,449.916565 380.917908,448.286102 
	C380.958252,446.799347 380.926453,445.310638 380.926453,444.506348 
	C382.903900,446.651245 384.836853,448.747864 386.769836,450.844482 
	C388.928619,448.666351 391.087433,446.488190 393.392914,444.162079 
	C393.392914,447.348175 393.392914,450.431152 393.392914,453.737061 
	C396.782440,453.737061 399.854706,453.737061 403.084625,453.737061 
	C403.084625,442.503113 403.105896,431.540894 403.070923,420.578857 
	C403.061157,417.516663 401.092651,416.969727 398.427368,416.768982 
	C395.301239,416.533600 393.585175,417.441986 392.536194,420.549469 
	C391.176208,424.578186 389.246582,428.414612 387.562164,432.333801 
	C387.194427,432.157715 386.826691,431.981628 386.458954,431.805542 
	C386.161316,430.210297 385.863647,428.615082 385.241608,426.271332 
M302.063324,452.406769 
	C302.113739,449.744080 302.154022,447.081146 302.216675,444.418762 
	C302.350281,438.741974 303.367401,437.949860 309.366058,438.674164 
	C309.366058,443.448883 309.366058,448.203369 309.366058,453.227295 
	C312.703735,453.227295 315.918427,453.227295 319.949677,453.227295 
	C319.949677,440.454071 319.949677,428.077271 319.949677,415.389771 
	C317.295593,415.389771 314.385468,415.389771 311.210938,415.389771 
	C310.776062,420.117035 310.356262,424.680695 309.911224,429.518433 
	C307.498444,429.627747 305.413330,429.722168 303.148315,429.824768 
	C303.148315,424.885834 303.148315,420.326752 303.148315,415.247345 
	C299.947632,415.433746 297.086426,415.600342 294.100800,415.774200 
	C293.249420,428.765717 292.436707,441.167725 291.575653,454.306885 
	C295.437927,453.921448 298.640411,453.601898 302.063324,452.406769 
M149.700272,453.919281 
	C153.682007,453.954071 157.678558,453.780396 161.642746,454.062103 
	C174.391586,454.968018 179.272064,444.015381 172.776505,434.639771 
	C173.169296,434.149872 173.594803,433.651886 173.984741,433.127472 
	C176.862152,429.257996 178.056061,425.048279 175.653488,420.593597 
	C173.359665,416.340546 169.223862,415.719360 164.884766,416.063660 
	C161.414642,416.339020 157.896515,416.523285 154.527542,417.301422 
	C153.219208,417.603607 151.388962,419.348175 151.281082,420.567047 
	C150.316833,431.462158 149.684341,442.386597 149.700272,453.919281 
M202.310394,416.860748 
	C199.805405,416.660034 198.906097,417.747620 198.778961,420.314911 
	C198.400543,427.956787 197.657288,435.579956 197.209900,443.219391 
	C197.009949,446.633636 197.176102,450.069305 197.176102,453.858826 
	C200.215500,453.711273 202.936035,453.579193 205.916580,453.434479 
	C205.916580,450.848938 205.735901,448.839386 205.972763,446.880341 
	C206.168396,445.262146 206.857727,443.703705 207.328278,442.118774 
	C208.667587,443.327301 210.317856,444.331085 211.277786,445.789337 
	C212.977524,448.371399 214.257599,451.229736 215.701385,453.950043 
	C224.211868,450.106293 224.210327,450.107086 220.162964,442.317291 
	C219.485870,441.014130 218.829269,439.700348 218.136032,438.338013 
	C219.156876,437.196594 220.278839,436.182770 221.110336,434.969818 
	C224.355286,430.236267 225.210800,425.108734 222.523300,419.918335 
	C220.087021,415.213196 215.438553,415.624146 211.093063,415.861053 
	C208.443298,416.005463 205.809525,416.443512 202.310394,416.860748 
M258.255463,454.001434 
	C266.588074,452.105652 269.816040,447.754578 268.409546,442.059082 
	C269.712311,439.130768 271.033539,437.303558 271.278229,435.342072 
	C271.641937,432.426636 271.514740,429.379395 271.116364,426.453613 
	C270.183014,419.599274 266.667023,415.670013 261.287231,414.980652 
	C255.478561,414.236267 250.139008,416.865417 248.166138,423.294525 
	C246.266006,429.486603 245.203262,436.233826 245.393219,442.689484 
	C245.604553,449.871460 250.430267,453.566010 258.255463,454.001434 
M133.283447,141.026138 
	C136.963638,141.505463 140.643829,141.984787 144.324005,142.464111 
	C138.930481,138.360214 119.207878,137.557083 114.395798,141.022293 
	C120.774788,141.022293 126.568398,141.022293 133.283447,141.026138 
M211.000000,173.500000 
	C210.800003,173.366669 210.600006,173.233337 210.400009,173.100006 
	C210.433334,173.400009 210.466675,173.699997 211.000000,173.500000 
M213.000000,174.500000 
	C212.799988,174.366669 212.599991,174.233337 212.399994,174.100006 
	C212.433334,174.400009 212.466660,174.699997 213.000000,174.500000 
M203.515991,303.420959 
	C203.515991,303.420959 203.573898,303.521667 203.515991,303.420959 
z"/>
<path fill="#F9F9F9" opacity="1.000000" stroke="none" 
	d="
M127.453033,234.813843 
	C128.066071,235.676865 128.679123,236.539871 129.502319,237.863525 
	C138.049622,247.991837 145.610107,258.495819 154.907257,267.129730 
	C168.596832,279.842651 183.524704,291.222137 197.925095,303.169647 
	C199.055603,304.076813 200.186111,304.983978 201.770950,306.232422 
	C203.145477,307.060699 204.065659,307.547699 204.985840,308.034698 
	C206.115143,308.888763 207.244431,309.742859 208.880554,310.921936 
	C210.927185,312.154968 212.466980,313.063019 214.006775,313.971069 
	C240.945923,331.056732 269.308655,344.596497 301.418274,348.551636 
	C310.585663,349.680847 319.755219,349.375488 328.508606,345.931671 
	C337.657990,342.332062 343.874939,336.176849 345.377777,325.496582 
	C346.040222,325.055328 346.433044,325.061615 346.825867,325.067932 
	C346.863342,325.500092 346.900848,325.932220 346.920685,327.007172 
	C346.966492,328.102570 347.029938,328.555145 347.093414,329.007751 
	C345.732574,334.084229 344.371704,339.160706 342.673401,344.775909 
	C336.820618,354.258514 328.503326,358.961609 318.465149,360.999847 
	C306.847595,363.358765 295.226532,362.596588 283.722839,360.404633 
	C256.273010,355.174347 231.120926,343.957001 207.176331,329.948273 
	C166.496765,306.148834 131.042877,276.374969 103.628502,237.675110 
	C94.447586,224.714737 86.898247,210.863449 82.917419,195.339890 
	C77.539757,174.369217 82.025826,162.078766 99.236732,150.115448 
	C99.236732,150.115448 99.661911,150.145935 100.114578,150.032684 
	C101.046707,149.619034 101.526169,149.318665 102.005630,149.018280 
	C125.752533,141.825943 148.442261,147.437744 170.900360,154.925476 
	C178.107056,157.328232 185.079117,160.447952 192.106461,163.365082 
	C193.668060,164.013306 195.009949,165.190826 196.452988,166.124634 
	C196.203857,166.589355 195.954727,167.054077 195.705582,167.518799 
	C188.948929,165.331680 182.206375,163.099716 175.432678,160.966690 
	C161.038300,156.433945 146.375275,153.995041 131.334198,156.698837 
	C113.414139,159.920166 104.474136,173.238068 107.447609,191.281830 
	C109.716209,205.048187 115.860039,217.115036 123.495262,229.275299 
	C125.037392,231.483780 126.245216,233.148819 127.453033,234.813843 
z"/>
<path fill="#FBFBFB" opacity="1.000000" stroke="none" 
	d="
M397.455444,304.913391 
	C397.455475,292.690491 397.455475,280.955536 397.455475,267.770386 
	C390.409271,275.143219 384.217834,281.305328 378.416840,287.815369 
	C375.157562,291.473053 372.875946,291.466064 369.631378,287.774567 
	C363.936371,281.295135 357.816925,275.188782 351.138550,268.149658 
	C351.138550,283.733643 351.138550,298.397339 351.138550,313.454590 
	C341.875366,313.454590 333.167694,313.454590 324.118958,313.454590 
	C324.118958,279.213104 324.118958,245.000229 324.118958,210.511642 
	C329.251678,209.591446 333.556030,209.633087 337.632660,214.439255 
	C348.501038,227.252609 359.991547,239.538483 371.249451,252.020782 
	C372.001740,252.854889 372.877136,253.577957 374.048248,254.686905 
	C381.076111,247.049530 387.924225,239.614227 394.764526,232.171707 
	C400.056030,226.414383 405.687256,220.923370 410.512115,214.797791 
	C414.299042,209.989975 418.655762,209.246185 424.265442,210.568573 
	C424.265442,244.779114 424.265442,279.007782 424.265442,313.538208 
	C415.476044,313.538208 406.890839,313.538208 397.455444,313.538208 
	C397.455444,310.883789 397.455444,308.142548 397.455444,304.913391 
z"/>
<path fill="#FBFBFB" opacity="1.000000" stroke="none" 
	d="
M216.243347,306.937134 
	C216.350906,296.833710 216.532776,286.730408 216.550552,276.626831 
	C216.587906,255.399994 216.539093,234.173004 216.569305,212.182007 
	C216.772369,210.958267 216.931778,210.498581 217.091187,210.038879 
	C220.759888,210.590622 224.428604,211.142365 228.492645,212.208466 
	C229.540939,213.261230 230.193878,213.799652 230.846832,214.338058 
	C242.639069,227.655090 254.431290,240.972107 266.666931,254.789871 
	C273.026123,247.879654 279.080811,241.312653 285.121399,234.732712 
	C290.976807,228.354553 297.178497,222.249283 302.545532,215.482742 
	C306.509857,210.484604 310.975952,209.017075 317.132446,210.578506 
	C317.132446,244.675598 317.132446,278.921600 317.132446,313.506989 
	C308.328979,313.506989 299.622833,313.506989 290.398804,313.506989 
	C290.398804,298.660217 290.398804,283.932281 290.398804,269.670258 
	C284.730652,274.916656 278.922089,279.971100 273.490448,285.402435 
	C266.783386,292.109131 266.933655,292.230469 260.353638,285.238220 
	C255.162994,279.722443 249.929855,274.246643 243.808380,267.797241 
	C243.808380,283.793182 243.808380,298.490479 243.808380,313.795441 
	C237.186172,313.795441 231.093262,313.795441 224.385315,313.511902 
	C222.847595,312.813507 221.924896,312.398621 221.002197,311.983704 
	C219.927917,311.256195 218.853668,310.528625 217.371521,309.373688 
	C216.723526,308.276581 216.483429,307.606873 216.243347,306.937134 
z"/>
<path fill="#F9F9F9" opacity="1.000000" stroke="none" 
	d="
M205.931549,300.815491 
	C204.256882,300.061371 202.582214,299.307251 200.413574,298.157562 
	C195.811646,294.648407 191.660751,291.588806 187.628326,288.380310 
	C186.708344,287.648315 185.630783,286.424255 185.589920,285.388641 
	C185.307861,278.240814 184.266327,276.117523 177.258438,275.207855 
	C171.112885,274.410126 166.848587,271.316681 162.956848,267.145142 
	C154.798767,258.400543 146.715393,249.586197 138.601349,240.800476 
	C137.460831,239.212524 136.320328,237.624557 134.862549,235.494659 
	C133.692398,233.979462 132.839493,233.006210 131.986603,232.032944 
	C131.955170,231.850616 131.923737,231.668274 131.788574,230.891357 
	C132.124756,228.864914 132.564651,227.433060 133.004547,226.001205 
	C137.769089,221.729507 142.120026,216.809006 147.444092,213.415024 
	C150.971924,211.166138 155.847076,210.586365 160.203568,210.191422 
	C165.981613,209.667603 171.842117,210.033859 177.667084,210.051041 
	C193.561234,210.097931 207.520493,223.277924 208.359970,239.033249 
	C208.402084,239.823532 208.263016,240.623505 208.191116,241.668884 
	C200.032150,241.668884 192.102310,241.668884 184.111404,241.668884 
	C179.160095,232.334320 170.854813,229.411072 161.100021,233.774124 
	C157.206238,235.515717 154.483810,238.173950 154.788620,242.934402 
	C155.075241,247.410492 158.059937,249.450974 161.830444,250.192535 
	C168.993668,251.601349 176.240875,252.582916 183.452606,253.745651 
	C184.764801,253.957230 186.091782,254.112137 187.382126,254.418732 
	C209.446564,259.661560 217.595367,276.515717 207.784348,297.761108 
	C206.950790,299.117554 206.441177,299.966522 205.931549,300.815491 
z"/>
<path fill="#101010" opacity="1.000000" stroke="none" 
	d="
M98.857635,149.933868 
	C82.025826,162.078766 77.539757,174.369217 82.917419,195.339890 
	C86.898247,210.863449 94.447586,224.714737 103.628502,237.675110 
	C131.042877,276.374969 166.496765,306.148834 207.176331,329.948273 
	C231.120926,343.957001 256.273010,355.174347 283.722839,360.404633 
	C295.226532,362.596588 306.847595,363.358765 318.465149,360.999847 
	C328.503326,358.961609 336.820618,354.258514 342.621155,345.143311 
	C349.964325,348.041992 348.894012,340.902069 351.166992,337.953918 
	C354.093506,341.737000 350.576324,351.572174 344.575012,355.633484 
	C342.276459,356.500061 340.454071,357.653473 338.333130,358.917755 
	C337.846344,359.374054 337.658142,359.719482 337.469940,360.064911 
	C337.306061,360.404938 337.142151,360.744965 336.449463,360.834900 
	C334.603790,361.343201 333.286957,362.101593 331.538757,362.923523 
	C330.576874,364.011932 330.046356,365.036896 329.515869,366.061829 
	C329.515869,366.061829 329.504761,366.003662 329.640808,365.491821 
	C328.855652,364.957855 327.934448,364.935791 326.618652,364.935303 
	C323.317688,365.669006 320.445221,366.598328 317.499481,367.058441 
	C296.318695,370.367035 276.074097,365.916046 256.189148,359.221252 
	C222.837402,347.992401 193.098526,330.138672 165.253326,308.933899 
	C136.302109,286.886902 110.138367,262.158722 91.285118,230.588364 
	C82.925690,216.590256 76.878838,201.728943 75.440552,185.262115 
	C73.931870,167.989243 81.550163,152.958298 95.471405,146.017517 
	C96.473785,147.262436 97.476166,148.507370 98.857635,149.933868 
z"/>
<path fill="#EAEAEA" opacity="1.000000" stroke="none" 
	d="
M95.681984,145.812927 
	C81.550163,152.958298 73.931870,167.989243 75.440552,185.262115 
	C76.878838,201.728943 82.925690,216.590256 91.285118,230.588364 
	C110.138367,262.158722 136.302109,286.886902 165.253326,308.933899 
	C193.098526,330.138672 222.837402,347.992401 256.189148,359.221252 
	C276.074097,365.916046 296.318695,370.367035 317.499481,367.058441 
	C320.445221,366.598328 323.317688,365.669006 326.638184,365.312988 
	C327.062317,366.173096 327.072327,366.677094 327.082336,367.181091 
	C313.357819,372.131866 299.318085,371.637878 285.225403,369.449036 
	C248.822205,363.794891 216.584518,347.999725 185.955215,328.382202 
	C180.496307,324.885834 175.318024,320.952820 169.885422,317.412872 
	C168.457840,316.482635 166.595474,315.953491 164.878006,315.778870 
	C155.954666,314.871613 147.561142,312.574677 140.264969,307.103271 
	C132.933075,301.605103 128.976059,294.284851 127.926743,285.176056 
	C127.690483,283.125092 126.563972,280.805969 125.117416,279.321503 
	C107.027374,260.757355 90.241714,241.143417 79.795204,217.166397 
	C75.599312,207.535919 72.519608,197.101105 70.923714,186.725983 
	C68.116516,168.475983 75.148254,151.054337 96.009583,142.927139 
	C97.491417,143.229370 98.272018,143.622421 99.052620,144.015457 
	C97.999268,144.546417 96.945915,145.077377 95.681984,145.812927 
z"/>
<path fill="#F7F7F7" opacity="1.000000" stroke="none" 
	d="
M385.403809,426.645569 
	C385.863647,428.615082 386.161316,430.210297 386.458954,431.805542 
	C386.826691,431.981628 387.194427,432.157715 387.562164,432.333801 
	C389.246582,428.414612 391.176208,424.578186 392.536194,420.549469 
	C393.585175,417.441986 395.301239,416.533600 398.427368,416.768982 
	C401.092651,416.969727 403.061157,417.516663 403.070923,420.578857 
	C403.105896,431.540894 403.084625,442.503113 403.084625,453.737061 
	C399.854706,453.737061 396.782440,453.737061 393.392914,453.737061 
	C393.392914,450.431152 393.392914,447.348175 393.392914,444.162079 
	C391.087433,446.488190 388.928619,448.666351 386.769836,450.844482 
	C384.836853,448.747864 382.903900,446.651245 380.926453,444.506348 
	C380.926453,445.310638 380.958252,446.799347 380.917908,448.286102 
	C380.873657,449.916565 380.762878,451.545166 380.661224,453.570465 
	C377.440582,453.761200 374.510895,453.934692 370.693085,454.160797 
	C371.271057,441.345856 371.833771,428.869324 372.391724,416.498962 
	C382.044464,415.298004 382.536102,415.695038 385.403809,426.645569 
z"/>
<path fill="#F2F2F2" opacity="1.000000" stroke="none" 
	d="
M301.953094,452.844543 
	C298.640411,453.601898 295.437927,453.921448 291.575653,454.306885 
	C292.436707,441.167725 293.249420,428.765717 294.100800,415.774200 
	C297.086426,415.600342 299.947632,415.433746 303.148315,415.247345 
	C303.148315,420.326752 303.148315,424.885834 303.148315,429.824768 
	C305.413330,429.722168 307.498444,429.627747 309.911224,429.518433 
	C310.356262,424.680695 310.776062,420.117035 311.210938,415.389771 
	C314.385468,415.389771 317.295593,415.389771 319.949677,415.389771 
	C319.949677,428.077271 319.949677,440.454071 319.949677,453.227295 
	C315.918427,453.227295 312.703735,453.227295 309.366058,453.227295 
	C309.366058,448.203369 309.366058,443.448883 309.366058,438.674164 
	C303.367401,437.949860 302.350281,438.741974 302.216675,444.418762 
	C302.154022,447.081146 302.113739,449.744080 301.953094,452.844543 
z"/>
<path fill="#F6F6F6" opacity="1.000000" stroke="none" 
	d="
M149.327240,453.610840 
	C149.684341,442.386597 150.316833,431.462158 151.281082,420.567047 
	C151.388962,419.348175 153.219208,417.603607 154.527542,417.301422 
	C157.896515,416.523285 161.414642,416.339020 164.884766,416.063660 
	C169.223862,415.719360 173.359665,416.340546 175.653488,420.593597 
	C178.056061,425.048279 176.862152,429.257996 173.984741,433.127472 
	C173.594803,433.651886 173.169296,434.149872 172.776505,434.639771 
	C179.272064,444.015381 174.391586,454.968018 161.642746,454.062103 
	C157.678558,453.780396 153.682007,453.954071 149.327240,453.610840 
M162.681931,425.173096 
	C158.852341,425.481506 159.166824,428.107605 159.271912,431.554352 
	C161.498413,430.675537 163.592712,430.392242 164.868271,429.218872 
	C166.811493,427.431396 167.089890,425.408051 162.681931,425.173096 
M160.940018,444.965485 
	C162.175919,443.365662 163.411804,441.765839 164.647675,440.165985 
	C163.168961,439.994598 161.690247,439.823212 160.211517,439.651794 
	C160.179489,441.455841 160.147461,443.259857 160.940018,444.965485 
z"/>
<path fill="#F5F5F5" opacity="1.000000" stroke="none" 
	d="
M202.739487,416.805206 
	C205.809525,416.443512 208.443298,416.005463 211.093063,415.861053 
	C215.438553,415.624146 220.087021,415.213196 222.523300,419.918335 
	C225.210800,425.108734 224.355286,430.236267 221.110336,434.969818 
	C220.278839,436.182770 219.156876,437.196594 218.136032,438.338013 
	C218.829269,439.700348 219.485870,441.014130 220.162964,442.317291 
	C224.210327,450.107086 224.211868,450.106293 215.701385,453.950043 
	C214.257599,451.229736 212.977524,448.371399 211.277786,445.789337 
	C210.317856,444.331085 208.667587,443.327301 207.328278,442.118774 
	C206.857727,443.703705 206.168396,445.262146 205.972763,446.880341 
	C205.735901,448.839386 205.916580,450.848938 205.916580,453.434479 
	C202.936035,453.579193 200.215500,453.711273 197.176102,453.858826 
	C197.176102,450.069305 197.009949,446.633636 197.209900,443.219391 
	C197.657288,435.579956 198.400543,427.956787 198.778961,420.314911 
	C198.906097,417.747620 199.805405,416.660034 202.739487,416.805206 
M207.594940,425.167175 
	C207.204239,427.656097 206.813522,430.144989 206.336639,433.182800 
	C208.295654,432.628510 209.815552,432.665131 210.402222,431.943268 
	C212.036377,429.932678 213.283325,427.607361 214.683167,425.406372 
	C212.583038,425.253632 210.482910,425.100891 207.594940,425.167175 
z"/>
<path fill="#F1F1F1" opacity="1.000000" stroke="none" 
	d="
M257.842224,454.012024 
	C250.430267,453.566010 245.604553,449.871460 245.393219,442.689484 
	C245.203262,436.233826 246.266006,429.486603 248.166138,423.294525 
	C250.139008,416.865417 255.478561,414.236267 261.287231,414.980652 
	C266.667023,415.670013 270.183014,419.599274 271.116364,426.453613 
	C271.514740,429.379395 271.641937,432.426636 271.278229,435.342072 
	C271.033539,437.303558 269.712311,439.130768 268.409546,442.059082 
	C269.816040,447.754578 266.588074,452.105652 257.842224,454.012024 
M255.091812,432.969849 
	C255.055969,435.941650 254.838425,438.928375 255.080002,441.877441 
	C255.167923,442.950775 256.349976,443.934509 257.032837,444.959106 
	C258.111969,444.161682 260.002777,443.481171 260.137177,442.547699 
	C260.950958,436.895966 261.449402,431.191986 261.816681,425.490234 
	C261.871033,424.646271 260.672302,423.721558 260.053284,422.834198 
	C259.070587,423.536316 257.597443,424.034241 257.203125,424.981384 
	C256.262939,427.239441 255.832092,429.709595 255.091812,432.969849 
z"/>
<path fill="#161616" opacity="1.000000" stroke="none" 
	d="
M138.163116,240.850082 
	C146.715393,249.586197 154.798767,258.400543 162.956848,267.145142 
	C166.848587,271.316681 171.112885,274.410126 177.258438,275.207855 
	C184.266327,276.117523 185.307861,278.240814 185.589920,285.388641 
	C185.630783,286.424255 186.708344,287.648315 187.628326,288.380310 
	C191.660751,291.588806 195.811646,294.648407 200.081482,298.027100 
	C199.523605,299.660675 198.803848,301.029205 198.004593,302.783691 
	C183.524704,291.222137 168.596832,279.842651 154.907257,267.129730 
	C145.610107,258.495819 138.049622,247.991837 129.649368,238.069092 
	C130.608429,238.224884 131.623474,238.654709 132.654404,239.042374 
	C134.339142,239.675919 136.034195,240.282013 138.163116,240.850082 
z"/>
<path fill="#EEEEEE" opacity="1.000000" stroke="none" 
	d="
M124.115479,415.288177 
	C125.905624,415.288177 127.695778,415.288177 129.154816,415.288177 
	C129.154816,428.208466 129.154816,440.823151 129.154816,453.724792 
	C125.191193,453.724792 122.094559,453.724792 118.886467,453.724792 
	C118.886467,448.400726 118.886467,443.125153 119.379379,437.356232 
	C120.220985,435.387573 120.624748,433.922791 120.908600,432.435150 
	C121.998405,426.723480 123.049774,421.004456 124.115479,415.288177 
z"/>
<path fill="#F5F5F5" opacity="1.000000" stroke="none" 
	d="
M348.060364,415.289764 
	C350.274567,414.992645 352.411987,414.455994 352.201355,418.106354 
	C351.526367,429.805084 351.039032,441.514648 350.460144,453.620453 
	C347.580841,453.620453 344.523834,453.620453 340.614319,453.620453 
	C340.873596,448.190643 341.113403,442.653931 341.414673,437.120575 
	C341.530029,435.001801 341.785828,432.890686 342.188599,430.289185 
	C342.689789,429.341827 342.979950,428.881317 343.270111,428.420776 
	C342.564148,428.268860 341.858215,428.116974 341.152252,427.965088 
	C341.359375,427.173065 341.566498,426.381073 342.172699,425.240356 
	C344.401337,421.691010 346.230865,418.490387 348.060364,415.289764 
z"/>
<path fill="#101010" opacity="1.000000" stroke="none" 
	d="
M132.822723,141.024216 
	C126.568398,141.022293 120.774788,141.022293 114.395798,141.022293 
	C119.207878,137.557083 138.930481,138.360214 144.324005,142.464111 
	C140.643829,141.984787 136.963638,141.505463 132.822723,141.024216 
z"/>
<path fill="#A2A2A2" opacity="1.000000" stroke="none" 
	d="
M123.747124,415.157715 
	C123.049774,421.004456 121.998405,426.723480 120.908600,432.435150 
	C120.624748,433.922791 120.220985,435.387573 119.474022,436.950134 
	C119.350922,431.273285 119.626091,425.509186 120.279510,419.338684 
	C120.480316,418.311005 120.302872,417.689667 120.125427,417.068329 
	C121.209877,416.387939 122.294327,415.707581 123.747124,415.157715 
z"/>
<path fill="#101010" opacity="1.000000" stroke="none" 
	d="
M99.267456,143.876724 
	C98.272018,143.622421 97.491417,143.229370 96.343170,142.764175 
	C97.940636,141.765121 99.831917,140.327332 101.888016,140.030212 
	C105.026894,139.576660 108.279663,139.911316 111.484077,139.911316 
	C111.530876,140.479553 111.577682,141.047791 111.624481,141.616028 
	C107.577080,142.323349 103.529686,143.030670 99.267456,143.876724 
z"/>
<path fill="#101010" opacity="1.000000" stroke="none" 
	d="
M347.464844,329.056122 
	C347.029938,328.555145 346.966492,328.102570 347.009705,327.320496 
	C348.964996,326.990997 350.813599,326.990997 353.776062,326.990997 
	C353.674438,329.196106 353.528625,332.359711 353.343842,336.369110 
	C350.954346,333.217316 349.395325,331.160889 347.464844,329.056122 
z"/>
<path fill="#CACACA" opacity="1.000000" stroke="none" 
	d="
M347.640717,415.202881 
	C346.230865,418.490387 344.401337,421.691010 342.291016,424.947144 
	C342.013641,423.390839 342.185333,421.758087 341.987640,420.171326 
	C341.475769,416.062897 343.255249,414.501434 347.640717,415.202881 
z"/>
<path fill="#D7D7D7" opacity="1.000000" stroke="none" 
	d="
M207.649216,172.998917 
	C203.958633,171.376434 200.268051,169.753937 196.577469,168.131454 
	C196.919266,167.430222 197.261063,166.728989 197.602875,166.027756 
	C201.062927,167.695694 204.522980,169.363632 208.001312,171.628662 
	C207.896103,172.483490 207.772659,172.741211 207.649216,172.998917 
z"/>
<path fill="#101010" opacity="1.000000" stroke="none" 
	d="
M347.098328,324.893585 
	C346.433044,325.061615 346.040222,325.055328 345.357910,325.105896 
	C345.068451,322.361450 345.068451,319.560120 345.068451,316.758789 
	C345.554169,316.755859 346.039856,316.752930 346.525574,316.750000 
	C346.807312,319.406433 347.089050,322.062836 347.098328,324.893585 
z"/>
<path fill="#161616" opacity="1.000000" stroke="none" 
	d="
M214.107727,313.725586 
	C212.466980,313.063019 210.927185,312.154968 209.183655,310.972290 
	C210.739960,305.299957 211.881058,311.347748 213.685760,310.967560 
	C214.000000,311.000000 213.993927,310.994049 213.993927,310.994049 
	C214.065506,311.822723 214.137085,312.651398 214.107727,313.725586 
z"/>
<path fill="#161616" opacity="1.000000" stroke="none" 
	d="
M127.595108,234.355698 
	C126.245216,233.148819 125.037392,231.483780 123.763519,229.476837 
	C127.734634,228.440277 128.467209,230.548615 127.595108,234.355698 
z"/>
<path fill="#161616" opacity="1.000000" stroke="none" 
	d="
M215.924316,306.955811 
	C216.483429,307.606873 216.723526,308.276581 217.054474,309.293579 
	C216.342026,310.083435 215.538712,310.526001 214.364670,310.981323 
	C213.993927,310.994049 214.000000,311.000000 214.003143,311.003021 
	C214.200500,309.527832 211.712753,306.985870 215.924316,306.955811 
z"/>
<path fill="#D4D4D4" opacity="1.000000" stroke="none" 
	d="
M338.631683,358.806885 
	C340.454071,357.653473 342.276459,356.500061 344.244293,355.682831 
	C343.148743,357.312195 341.907745,358.605347 340.187500,359.710510 
	C339.349396,359.283966 338.990540,359.045410 338.631683,358.806885 
z"/>
<path fill="#161616" opacity="1.000000" stroke="none" 
	d="
M132.761414,225.850037 
	C132.564651,227.433060 132.124756,228.864914 131.620544,230.670502 
	C131.509918,229.012711 131.463623,226.981232 131.417328,224.949738 
	C131.784302,225.199448 132.151291,225.449158 132.761414,225.850037 
z"/>
<path fill="#B8B8B8" opacity="1.000000" stroke="none" 
	d="
M215.000732,174.996994 
	C216.120728,175.489578 217.240723,175.982147 218.360703,176.474731 
	C218.300186,176.844421 218.239655,177.214127 218.179138,177.583832 
	C217.204147,177.429306 216.229172,177.274796 215.104492,176.480835 
	C214.970108,175.559921 214.985428,175.278458 215.000732,174.996994 
z"/>
<path fill="#161616" opacity="1.000000" stroke="none" 
	d="
M221.007111,312.345337 
	C221.924896,312.398621 222.847595,312.813507 223.921692,313.498718 
	C222.229782,315.786835 221.374771,314.956268 221.007111,312.345337 
z"/>
<path fill="#161616" opacity="1.000000" stroke="none" 
	d="
M206.115479,301.083313 
	C206.441177,299.966522 206.950790,299.117554 207.726440,298.125580 
	C207.428116,299.105438 206.863754,300.228302 206.115479,301.083313 
z"/>
<path fill="#161616" opacity="1.000000" stroke="none" 
	d="
M131.973602,232.445236 
	C132.839493,233.006210 133.692398,233.979462 134.639816,235.268280 
	C133.809753,234.675079 132.885178,233.766312 131.973602,232.445236 
z"/>
<path fill="#EAEAEA" opacity="1.000000" stroke="none" 
	d="
M331.970093,362.860016 
	C333.286957,362.101593 334.603790,361.343201 336.237701,360.815643 
	C335.305389,362.351654 334.056030,363.656830 332.380371,364.476074 
	C331.959442,363.613434 331.964752,363.236725 331.970093,362.860016 
z"/>
<path fill="#161616" opacity="1.000000" stroke="none" 
	d="
M230.906830,214.024765 
	C230.193878,213.799652 229.540939,213.261230 228.807678,212.408905 
	C229.470947,211.797379 230.214508,211.499741 231.367065,211.038422 
	C231.194275,212.192307 231.080551,212.951889 230.906830,214.024765 
z"/>
<path fill="#D4D4D4" opacity="1.000000" stroke="none" 
	d="
M331.538757,362.923523 
	C331.964752,363.236725 331.959442,363.613434 331.949982,364.555237 
	C331.316498,365.478973 330.687134,365.837585 329.786804,366.129028 
	C330.046356,365.036896 330.576874,364.011932 331.538757,362.923523 
z"/>
<path fill="#CACACA" opacity="1.000000" stroke="none" 
	d="
M341.074158,428.275024 
	C341.858215,428.116974 342.564148,428.268860 343.270111,428.420776 
	C342.979950,428.881317 342.689789,429.341827 342.134277,429.919128 
	C341.578003,429.552246 341.287048,429.068604 341.074158,428.275024 
z"/>
<path fill="#161616" opacity="1.000000" stroke="none" 
	d="
M204.945435,307.681824 
	C204.065659,307.547699 203.145477,307.060699 202.079208,306.292206 
	C202.923767,306.450104 203.914413,306.889526 204.945435,307.681824 
z"/>
<path fill="#D4D4D4" opacity="1.000000" stroke="none" 
	d="
M327.440125,367.177979 
	C327.072327,366.677094 327.062317,366.173096 327.032776,365.291382 
	C327.934448,364.935791 328.855652,364.957855 329.643768,365.519348 
	C328.939758,366.430817 328.368835,366.802856 327.440125,367.177979 
z"/>
<path fill="#101010" opacity="1.000000" stroke="none" 
	d="
M101.845352,148.790222 
	C101.526169,149.318665 101.046707,149.619034 100.278397,149.896332 
	C100.554726,149.436218 101.119896,148.999191 101.845352,148.790222 
z"/>
<path fill="#161616" opacity="1.000000" stroke="none" 
	d="
M216.815033,210.012527 
	C216.931778,210.498581 216.772369,210.958267 216.434219,211.736145 
	C216.349930,211.364944 216.444382,210.675552 216.815033,210.012527 
z"/>
<path fill="#EEEEEE" opacity="1.000000" stroke="none" 
	d="
M120.083664,417.378540 
	C120.302872,417.689667 120.480316,418.311005 120.400146,418.933472 
	C120.108994,418.519348 120.075447,418.104065 120.083664,417.378540 
z"/>
<path fill="#EAEAEA" opacity="1.000000" stroke="none" 
	d="
M338.333130,358.917755 
	C338.990540,359.045410 339.349396,359.283966 339.867798,359.806000 
	C339.380005,360.405670 338.732666,360.721832 337.777649,360.551453 
	C337.658142,359.719482 337.846344,359.374054 338.333130,358.917755 
z"/>
<path fill="#D7D7D7" opacity="1.000000" stroke="none" 
	d="
M210.750000,173.750000 
	C210.466675,173.699997 210.433334,173.400009 210.399994,173.100006 
	C210.600006,173.233337 210.800003,173.366669 210.750000,173.750000 
z"/>
<path fill="#D7D7D7" opacity="1.000000" stroke="none" 
	d="
M208.265961,171.875031 
	C208.812561,171.803070 209.112747,172.081833 209.412949,172.360596 
	C209.044312,172.710220 208.675690,173.059860 207.978149,173.204208 
	C207.772659,172.741211 207.896103,172.483490 208.265961,171.875031 
z"/>
<path fill="#D7D7D7" opacity="1.000000" stroke="none" 
	d="
M212.750000,174.750000 
	C212.466660,174.699997 212.433334,174.400009 212.399994,174.100006 
	C212.599991,174.233337 212.799988,174.366669 212.750000,174.750000 
z"/>
<path fill="#161616" opacity="1.000000" stroke="none" 
	d="
M206.993134,304.009064 
	C207.112640,304.140747 207.232147,304.272430 207.351654,304.404114 
	C207.272491,304.355225 207.193314,304.306305 207.057068,304.128723 
	C207.000000,304.000000 206.993134,304.009064 206.993134,304.009064 
z"/>
<path fill="#161616" opacity="1.000000" stroke="none" 
	d="
M207.004517,303.996582 
	C206.890686,303.858978 206.772308,303.724823 206.653946,303.590668 
	C206.733704,303.640533 206.813477,303.690399 206.943176,303.874664 
	C206.993134,304.009064 207.000000,304.000000 207.004517,303.996582 
z"/>
<path fill="#D7D7D7" opacity="1.000000" stroke="none" 
	d="
M214.549591,174.869110 
	C214.985428,175.278458 214.970108,175.559921 214.922989,176.263870 
	C214.626938,176.037979 214.362701,175.389603 214.549591,174.869110 
z"/>
<path fill="#161616" opacity="1.000000" stroke="none" 
	d="
M203.544952,303.471313 
	C203.573898,303.521667 203.515991,303.420959 203.544952,303.471313 
z"/>
<path fill="#242424" opacity="1.000000" stroke="none" 
	d="
M163.083969,425.123749 
	C167.089890,425.408051 166.811493,427.431396 164.868271,429.218872 
	C163.592712,430.392242 161.498413,430.675537 159.271912,431.554352 
	C159.166824,428.107605 158.852341,425.481506 163.083969,425.123749 
z"/>
<path fill="#161616" opacity="1.000000" stroke="none" 
	d="
M160.527710,445.014709 
	C160.147461,443.259857 160.179489,441.455841 160.211517,439.651794 
	C161.690247,439.823212 163.168961,439.994598 164.647675,440.165985 
	C163.411804,441.765839 162.175919,443.365662 160.527710,445.014709 
z"/>
<path fill="#161616" opacity="1.000000" stroke="none" 
	d="
M207.988861,425.057678 
	C210.482910,425.100891 212.583038,425.253632 214.683167,425.406372 
	C213.283325,427.607361 212.036377,429.932678 210.402222,431.943268 
	C209.815552,432.665131 208.295654,432.628510 206.336639,433.182800 
	C206.813522,430.144989 207.204239,427.656097 207.988861,425.057678 
z"/>
<path fill="#090909" opacity="1.000000" stroke="none" 
	d="
M255.143677,432.531982 
	C255.832092,429.709595 256.262939,427.239441 257.203125,424.981384 
	C257.597443,424.034241 259.070587,423.536316 260.053284,422.834198 
	C260.672302,423.721558 261.871033,424.646271 261.816681,425.490234 
	C261.449402,431.191986 260.950958,436.895966 260.137177,442.547699 
	C260.002777,443.481171 258.111969,444.161682 257.032837,444.959106 
	C256.349976,443.934509 255.167923,442.950775 255.080002,441.877441 
	C254.838425,438.928375 255.055969,435.941650 255.143677,432.531982 
z"/>
</svg>